<svg viewBox="0 0 32 32" xmlns="http://www.w3.org/2000/svg" style="image-rendering:pixelated">
  <!-- atom ring horizontal -->
  <rect x="2"  y="15" width="28" height="2" fill="#3fbcb4"/>
  <!-- atom ring diagonal 1 -->
  <rect x="5"  y="7"  width="2"  height="2" fill="#3fbcb4"/>
  <rect x="7"  y="9"  width="2"  height="2" fill="#3fbcb4"/>
  <rect x="9"  y="11" width="2"  height="2" fill="#3fbcb4"/>
  <rect x="19" y="19" width="2"  height="2" fill="#3fbcb4"/>
  <rect x="21" y="21" width="2"  height="2" fill="#3fbcb4"/>
  <rect x="23" y="23" width="2"  height="2" fill="#3fbcb4"/>
  <!-- atom ring diagonal 2 -->
  <rect x="23" y="7"  width="2"  height="2" fill="#3fbcb4"/>
  <rect x="21" y="9"  width="2"  height="2" fill="#3fbcb4"/>
  <rect x="19" y="11" width="2"  height="2" fill="#3fbcb4"/>
  <rect x="9"  y="19" width="2"  height="2" fill="#3fbcb4"/>
  <rect x="7"  y="21" width="2"  height="2" fill="#3fbcb4"/>
  <rect x="5"  y="23" width="2"  height="2" fill="#3fbcb4"/>
  <!-- nucleus -->
  <rect x="13" y="13" width="6"  height="6" fill="#61dafb"/>
  <!-- outer ring arc approximation -->
  <rect x="12" y="6"  width="8"  height="2" fill="#3fbcb4"/>
  <rect x="12" y="24" width="8"  height="2" fill="#3fbcb4"/>
</svg>
