<svg xmlns="http://www.w3.org/2000/svg" viewBox="0 0 860 845" width="512" height="512">
  <defs>
    <linearGradient id="vsc_grad" x1="0%" y1="0%" x2="100%" y2="100%">
      <stop offset="0%"   stop-color="#3c99d4"/>
      <stop offset="100%" stop-color="#0a75b7"/>
    </linearGradient>
  </defs>
  <!-- Full shape with gradient fill -->
  <g transform="translate(0,845) scale(0.1,-0.1)" fill="url(#vsc_grad)" stroke="none">
    <path d="M6170 8294 c-68 -21 -131 -62 -217 -140 -1836 -1675 -3270 -2973
-3280 -2970 -7 3 -344 256 -750 563 -406 308 -754 570 -773 583 -53 38 -144
40 -213 6 -57 -29 -691 -589 -734 -649 -50 -70 -49 -155 3 -216 14 -16 331
-308 704 -647 374 -339 680 -620 680 -624 0 -5 -310 -290 -690 -635 -746 -678
-731 -663 -717 -751 14 -88 37 -113 383 -427 184 -168 351 -313 371 -323 59
-28 146 -25 213 8 30 16 305 218 610 449 305 232 637 484 737 560 l182 138
1053 -957 c579 -526 1345 -1222 1701 -1546 357 -325 668 -604 690 -619 57 -38
138 -60 201 -55 42 4 217 87 1026 485 967 476 976 480 1041 544 73 71 113 143
129 229 7 37 9 1013 8 2950 -3 3322 10 2944 -107 3060 l-66 65 -923 445 c-507
245 -951 455 -985 467 -73 26 -206 30 -277 7z m268 -5028 l-3 -934 -1215 920
c-668 505 -1220 925 -1226 931 -9 9 279 234 1215 948 l1226 936 3 -934 c1
-513 1 -1353 0 -1867z"/>
  </g>
  <!-- Dark overlay for shadow/fold depth -->
  <g transform="translate(0,845) scale(0.1,-0.1)" fill="#0a6ea8" stroke="none" opacity="0.55">
    <path d="M6070 8223 c-25 -8 -61 -27 -81 -42 -20 -14 -772 -695 -1670 -1514
-899 -818 -1639 -1485 -1646 -1483 -7 3 -344 256 -750 563 -406 308 -754 570
-773 583 -53 38 -144 40 -213 6 -57 -29 -691 -589 -734 -649 -50 -70 -49 -155
3 -216 14 -16 331 -308 704 -647 374 -339 680 -620 680 -624 0 -5 -310 -290
-690 -635 -746 -678 -731 -663 -717 -751 14 -88 37 -113 383 -427 184 -168
351 -313 371 -323 59 -28 146 -25 213 8 30 16 305 218 610 449 305 232 637
484 737 560 l182 138 1548 -1406 c851 -774 1606 -1458 1676 -1522 77 -70 141
-119 160 -125 18 -4 65 -6 104 -3 97 7 172 41 212 98 63 86 61 48 61 1105 l0
962 -1212 917 c-667 505 -1220 925 -1230 934 -15 15 72 83 1164 916 648 495
1204 920 1235 944 l56 44 -6 957 -5 957 -29 59 c-36 76 -115 156 -169 172 -55
16 -119 14 -174 -5z"/>
  </g>
</svg>